<?xml version="1.0" encoding="utf-8"?>
<svg version="1.1" xmlns="http://www.w3.org/2000/svg" xmlns:xlink="http://www.w3.org/1999/xlink" x="0px" y="0px" viewBox="0 0 500 100" style="enable-background:new 0 0 500 100;">
  <defs>
    <style type="text/css">
      .logo-r { fill: #006837; }
      .logo-arrow { fill: #00B140; }
      .logo-text { fill: #1B1B3A; }
    </style>
  </defs>
  <g>
    <!-- Stylized R with integrated arrow -->
    <path class="logo-r" d="M40,80c-16.57,0-30-13.43-30-30S23.43,20,40,20c16.57,0,30,13.43,30,30S56.57,80,40,80z M40,25 c-13.81,0-25,11.19-25,25s11.19,25,25,25s25-11.19,25-25S53.81,25,40,25z"/>
    <path class="logo-arrow" d="M45,35l15,15l-15,15V55H25V45h20V35z"/>
    
    <!-- RoundUPI Text -->
    <path class="logo-text" d="M120,65V35h25c8.28,0,15,6.72,15,15s-6.72,15-15,15H120z M125,40v20h20c5.52,0,10-4.48,10-10 s-4.48-10-10-10H125z"/>
    <path class="logo-text" d="M180,65V35h30v5h-25v7.5h20v5h-20V60h25v5H180z"/>
    <path class="logo-text" d="M230,65V35h5l20,20V35h5v30h-5l-20-20v20H230z"/>
    <path class="logo-text" d="M280,65V35h30v5h-25v7.5h20v5h-20V60h25v5H280z"/>
    <path class="logo-text" d="M330,65V35h5l20,20V35h5v30h-5l-20-20v20H330z"/>
    <path class="logo-text" d="M380,65V35h5v25h25v5H380z"/>
    <path class="logo-text" d="M430,65V35h5v30H430z"/>
  </g>
</svg>
